HIERARCHY
ROOT Hips
{
	OFFSET -0.001795 -0.223333 0.028219
	CHANNELS 6 Xposition Yposition Zposition Zrotation Yrotation Xrotation 
	JOINT LeftUpLeg
	{
		OFFSET 0.069520 -0.091406 -0.006815
		CHANNELS 3 Zrotation Yrotation Xrotation
		JOINT LeftLeg
		{
			OFFSET 0.034277 -0.375199 -0.004496
			CHANNELS 3 Zrotation Yrotation Xrotation
			JOINT LeftFoot
			{
				OFFSET -0.013596 -0.397961 -0.043693
				CHANNELS 3 Zrotation Yrotation Xrotation
				JOINT LeftToe
				{
					OFFSET 0.026358 -0.055791 0.119288
					CHANNELS 3 Zrotation Yrotation Xrotation
					End Site
					{
						OFFSET 0.000000 0.000000 0.000000
					}
				}
			}
		}
	}
	JOINT RightUpLeg
	{
		OFFSET -0.067670 -0.090522 -0.004320
		CHANNELS 3 Zrotation Yrotation Xrotation
		JOINT RightLeg
		{
			OFFSET -0.038290 -0.382569 -0.008850
			CHANNELS 3 Zrotation Yrotation Xrotation
			JOINT RightFoot
			{
				OFFSET 0.015774 -0.398415 -0.042312
				CHANNELS 3 Zrotation Yrotation Xrotation
				JOINT RightToe
				{
					OFFSET -0.025372 -0.048144 0.123348
					CHANNELS 3 Zrotation Yrotation Xrotation
					End Site
					{
						OFFSET 0.000000 0.000000 0.000000
					}
				}
			}
		}
	}
	JOINT Spine
	{
		OFFSET -0.002533 0.108963 -0.026696
		CHANNELS 3 Zrotation Yrotation Xrotation
		JOINT Spine1
		{
			OFFSET 0.005487 0.135180 0.001092
			CHANNELS 3 Zrotation Yrotation Xrotation
			JOINT Spine2
			{
				OFFSET 0.001457 0.052922 0.025425
				CHANNELS 3 Zrotation Yrotation Xrotation
				JOINT Neck
				{
					OFFSET -0.002778 0.213870 -0.042857
					CHANNELS 3 Zrotation Yrotation Xrotation
					JOINT Head
					{
						OFFSET 0.005152 0.064970 0.051349
						CHANNELS 3 Zrotation Yrotation Xrotation
						End Site
						{
							OFFSET 0.000000 0.000000 0.000000
						}
					}
				}
				JOINT LeftShoulder
				{
					OFFSET 0.078845 0.121749 -0.034090
					CHANNELS 3 Zrotation Yrotation Xrotation
					JOINT LeftArm
					{
						OFFSET 0.090977 0.030469 -0.008868
						CHANNELS 3 Zrotation Yrotation Xrotation
						JOINT LeftForeArm
						{
							OFFSET 0.259612 -0.012772 -0.027456
							CHANNELS 3 Zrotation Yrotation Xrotation
							JOINT LeftHand
							{
								OFFSET 0.249234 0.008986 -0.001171
								CHANNELS 3 Zrotation Yrotation Xrotation
								End Site
								{
									OFFSET 0.000000 0.000000 0.000000
								}
							}
						}
					}
				}
				JOINT RightShoulder
				{
					OFFSET -0.081759 0.118833 -0.038615
					CHANNELS 3 Zrotation Yrotation Xrotation
					JOINT RightArm
					{
						OFFSET -0.096012 0.032551 -0.009143
						CHANNELS 3 Zrotation Yrotation Xrotation
						JOINT RightForeArm
						{
							OFFSET -0.253742 -0.013329 -0.021401
							CHANNELS 3 Zrotation Yrotation Xrotation
							JOINT RightHand
							{
								OFFSET -0.255298 0.007772 -0.005559
								CHANNELS 3 Zrotation Yrotation Xrotation
								End Site
								{
									OFFSET 0.000000 0.000000 0.000000
								}
							}
						}
					}
				}
			}
		}
	}
}
MOTION
Frames: 15
Frame Time: 0.050000
-0.278658 0.954257 0.880537 -3.141778 -3.186817 1.224704 6.864357 -0.382328 -12.015284 -1.721296 0.049101 10.994249 8.278990 17.680760 17.534299 0.000000 0.000000 0.000000 3.636184 0.028011 -1.056252 -0.193809 0.247491 5.125755 -4.061353 -12.537165 9.770364 0.000000 0.000000 0.000000 9.047008 -1.444605 11.395301 -7.202624 2.147696 -27.542309 1.727481 18.268874 28.140220 10.659258 0.221183 -42.054809 0.000000 0.000000 0.000000 -6.890965 -14.823812 3.963604 -69.402950 -15.325142 -3.994912 8.996170 -26.403706 -1.395770 0.000000 0.000000 0.000000 21.154245 0.393622 3.467871 75.346821 19.385750 4.519867 -23.585313 34.325504 -2.235274 0.000000 0.000000 0.000000 
-0.269342 0.950476 0.896577 -3.398306 -3.091944 1.516001 6.332596 -0.438539 -11.896115 -1.174673 -0.076174 11.391534 8.646695 18.199406 17.243573 0.000000 0.000000 0.000000 3.399180 -0.050858 -0.424511 -0.069562 0.274628 6.128635 -4.476597 -12.839231 7.334981 0.000000 0.000000 0.000000 8.515468 -1.292233 10.455605 -7.118054 2.163265 -26.557160 2.265911 18.069796 27.767159 9.831363 0.492841 -41.278200 0.000000 0.000000 0.000000 -7.782401 -15.568905 4.174357 -68.075283 -17.262500 -2.487741 9.725439 -24.571391 -1.465277 0.000000 0.000000 0.000000 21.513712 0.837991 3.752952 75.441865 18.982953 4.216126 -24.062292 34.540419 -2.387890 0.000000 0.000000 0.000000 
-0.259427 0.949537 0.911194 -3.720014 -2.785713 1.888749 5.977212 -0.485484 -11.934675 -1.184978 -0.095315 12.332931 8.775139 18.394094 16.014087 0.000000 0.000000 0.000000 3.342090 -0.068218 -0.287272 -0.376202 0.376385 7.279370 -4.646502 -13.042044 6.715153 0.000000 0.000000 0.000000 8.050312 -1.186390 9.778604 -6.626930 2.079846 -25.658259 2.081176 18.485364 26.952791 10.219688 0.392219 -40.939944 0.000000 0.000000 0.000000 -8.217638 -15.933868 4.171825 -66.397753 -19.675183 -0.878488 11.092006 -23.487619 -1.762121 0.000000 0.000000 0.000000 22.170889 1.101549 4.139689 75.384325 17.493870 3.166250 -23.764672 35.899175 -2.443739 0.000000 0.000000 0.000000 
-0.248848 0.950128 0.924728 -3.661911 -2.568092 2.544827 5.135926 -0.569867 -11.724719 -1.129800 -0.108925 12.142412 8.846726 18.510777 15.401851 0.000000 0.000000 0.000000 2.522644 0.014920 -0.806773 -0.343323 0.415960 8.238152 -4.651812 -13.221333 7.641851 0.000000 0.000000 0.000000 7.264612 -1.010223 8.641646 -6.354851 2.023778 -25.481637 2.239148 18.806500 27.036122 9.369628 0.773721 -40.299660 0.000000 0.000000 0.000000 -7.758337 -16.241735 4.274916 -66.121171 -22.174429 0.499500 11.141130 -22.614505 -1.723311 0.000000 0.000000 0.000000 22.262139 1.007841 4.197718 76.598216 16.173661 2.574086 -23.354162 36.996858 -2.394399 0.000000 0.000000 0.000000 
-0.237830 0.951375 0.937174 -3.666869 -1.877826 3.094822 4.818337 -0.595759 -11.235078 -1.836525 0.041029 11.383625 8.563650 18.156198 14.804578 0.000000 0.000000 0.000000 1.711365 0.099350 -1.360040 0.140837 0.363738 9.138866 -5.137398 -14.425307 9.440155 0.000000 0.000000 0.000000 6.701600 -0.935913 8.221440 -6.389057 2.027488 -25.711796 2.488251 18.575556 27.283202 9.309715 0.808912 -40.072489 0.000000 0.000000 0.000000 -7.302267 -15.948401 4.177987 -66.243278 -23.843116 1.363448 10.917650 -22.938544 -1.708131 0.000000 0.000000 0.000000 22.067328 0.935171 4.202347 77.493650 15.045771 2.009692 -22.269061 38.153330 -2.152136 0.000000 0.000000 0.000000 
-0.226468 0.952769 0.948401 -3.621480 -0.745806 3.898713 4.160643 -0.693120 -11.552815 -2.005378 0.051675 11.304207 8.049798 17.498579 14.392308 0.000000 0.000000 0.000000 0.982576 0.272171 -2.786497 0.472860 0.390388 11.823459 -5.622020 -15.255208 9.257909 0.000000 0.000000 0.000000 6.080807 -0.797638 7.102370 -6.175278 2.016600 -24.917216 2.419438 18.455575 26.888628 8.731869 1.053708 -38.899652 0.000000 0.000000 0.000000 -6.689331 -15.887802 4.136063 -66.588644 -25.052247 1.959272 9.808078 -23.313500 -1.533725 0.000000 0.000000 0.000000 22.606339 0.909847 4.426332 77.577150 14.671894 1.777940 -22.836650 38.184850 -2.267744 0.000000 0.000000 0.000000 
-0.215421 0.953811 0.958612 -3.629954 0.124700 4.016164 3.787186 -0.712521 -11.096288 -2.523378 0.140545 11.188468 7.616804 16.917480 13.956702 0.000000 0.000000 0.000000 -0.008714 0.435275 -4.308004 1.368178 0.293536 15.835314 -6.192927 -16.304967 9.384324 0.000000 0.000000 0.000000 5.668078 -0.796978 7.389066 -6.059509 1.981622 -25.542139 2.683764 18.208529 27.463803 8.800568 1.048896 -38.713187 0.000000 0.000000 0.000000 -5.948473 -16.317258 4.350282 -67.229178 -25.995970 2.321562 8.220326 -23.798235 -1.209048 0.000000 0.000000 0.000000 22.846424 0.475307 4.317430 78.035557 14.208838 1.510718 -23.163751 37.906955 -2.241055 0.000000 0.000000 0.000000 
-0.205053 0.953680 0.968565 -3.640299 0.538534 4.174828 3.482374 -0.726976 -10.842739 -3.113060 0.250386 11.467855 7.470584 16.702718 13.470739 0.000000 0.000000 0.000000 -0.643745 0.684484 -6.971465 1.883630 0.271391 21.580987 -6.856289 -17.560729 9.552560 0.000000 0.000000 0.000000 5.601861 -0.797747 7.405240 -6.146080 2.024477 -25.021315 2.657482 17.889894 27.125269 8.708179 1.033184 -38.125787 0.000000 0.000000 0.000000 -5.878539 -16.423242 4.392151 -67.637740 -26.635317 2.780746 7.158158 -24.237645 -0.997524 0.000000 0.000000 0.000000 22.726730 0.459693 4.262766 78.888808 14.002234 1.633863 -23.261327 37.679396 -2.262037 0.000000 0.000000 0.000000 
-0.195719 0.952562 0.979394 -3.520115 0.647047 3.535205 3.089087 -0.656825 -9.336526 -3.732673 0.376846 11.306035 7.456451 16.626435 12.708025 0.000000 0.000000 0.000000 -1.484614 0.948103 -10.326149 2.887848 0.033661 28.834338 -8.073820 -19.847255 10.731403 0.000000 0.000000 0.000000 5.199430 -0.799822 7.934069 -5.220192 1.825865 -24.873660 1.786970 17.688512 27.196684 9.951214 0.424624 -37.902163 0.000000 0.000000 0.000000 -5.552066 -17.157278 4.711695 -66.964058 -26.843081 2.831907 6.341612 -24.391953 -0.816095 0.000000 0.000000 0.000000 23.385751 0.625149 4.474364 78.621665 13.883558 1.315847 -22.602170 37.721855 -2.098149 0.000000 0.000000 0.000000 
-0.187617 0.951384 0.991670 -3.554861 0.798009 2.434759 3.064686 -0.535805 -7.515919 -4.245925 0.478816 11.984604 6.704322 15.333461 11.222580 0.000000 0.000000 0.000000 -2.034021 1.065743 -12.253425 2.944781 0.040727 34.577092 -8.010231 -19.714904 11.607951 0.000000 0.000000 0.000000 4.955573 -0.846099 8.889057 -5.374503 1.897070 -23.959698 1.716852 16.559352 26.618735 9.768158 0.253600 -36.879644 0.000000 0.000000 0.000000 -6.977388 -17.933023 4.976349 -64.697889 -26.784034 3.145008 6.193084 -23.260352 -0.725768 0.000000 0.000000 0.000000 23.044857 0.503489 4.018225 78.426826 12.475078 0.254748 -20.304410 37.639828 -1.665031 0.000000 0.000000 0.000000 
-0.181063 0.950701 1.005397 -3.480463 0.854800 1.154766 2.597643 -0.390399 -5.159090 -4.110013 0.446664 12.352131 6.117442 14.225668 9.813119 0.000000 0.000000 0.000000 -1.895195 1.288990 -14.889286 3.182540 -0.042161 40.854187 -8.402530 -20.398596 11.779783 0.000000 0.000000 0.000000 4.580395 -0.847287 9.531416 -4.273157 1.650372 -23.651603 0.649780 15.670017 27.419708 10.512000 -0.295003 -36.381201 0.000000 0.000000 0.000000 -7.676773 -18.754909 5.365958 -62.936068 -27.461870 3.521266 6.499338 -22.482002 -0.716814 0.000000 0.000000 0.000000 23.182698 0.040224 3.576792 77.629738 11.157064 -1.067237 -16.565835 39.216447 -0.691187 0.000000 0.000000 0.000000 
-0.176272 0.950965 1.020402 -3.593524 0.575321 0.710234 2.490132 -0.253148 -3.168070 -3.891710 0.408164 12.169397 5.267570 12.585038 8.367354 0.000000 0.000000 0.000000 -1.585590 1.565170 -17.668251 3.418584 -0.097025 42.649116 -8.685444 -20.954372 9.839544 0.000000 0.000000 0.000000 4.452935 -0.828275 9.548633 -3.428225 1.453718 -22.649202 -0.340401 14.846101 27.326359 9.951867 -0.221379 -35.909857 0.000000 0.000000 0.000000 -8.477219 -19.351559 5.691914 -61.603010 -27.592547 3.731605 7.802671 -21.134379 -0.881875 0.000000 0.000000 0.000000 22.411098 -0.385992 2.919780 77.640526 9.906803 -1.910550 -15.293634 39.279334 -0.429337 0.000000 0.000000 0.000000 
-0.173483 0.951340 1.036250 -3.802079 0.483024 0.227287 2.182011 -0.123866 -1.327091 -3.462673 0.317982 12.074574 5.447044 12.764699 7.656370 0.000000 0.000000 0.000000 -1.043413 1.849321 -19.965842 3.589715 -0.174107 41.173945 -7.991202 -19.659832 8.533960 0.000000 0.000000 0.000000 4.749333 -0.896006 10.087626 -3.287521 1.420627 -22.370135 -1.242738 13.635166 27.355201 10.907389 -0.828030 -36.475342 0.000000 0.000000 0.000000 -9.029962 -19.699605 6.012270 -61.090340 -28.616627 4.404257 9.113827 -19.479615 -0.976313 0.000000 0.000000 0.000000 22.160758 -1.115780 2.098977 77.280677 8.855239 -2.803396 -13.834089 39.427915 -0.099124 0.000000 0.000000 0.000000 
-0.172515 0.952168 1.053158 -4.186124 0.691678 0.025862 2.252368 0.048162 1.144872 -2.913698 0.212604 10.355338 5.277988 12.372982 7.034038 0.000000 0.000000 0.000000 -0.537256 2.110252 -21.936251 3.996665 -0.410243 35.746902 -7.565005 -18.823592 8.594606 0.000000 0.000000 0.000000 4.835837 -0.967463 10.793888 -2.465623 1.214035 -22.551640 -2.515384 12.455184 27.084264 12.151107 -1.642414 -36.213933 0.000000 0.000000 0.000000 -8.847290 -19.439021 6.063731 -61.270967 -29.315831 4.888917 9.626254 -17.718918 -0.921300 0.000000 0.000000 0.000000 21.173509 -1.456503 1.508974 77.719025 8.250624 -3.117458 -14.200193 38.546946 -0.338522 0.000000 0.000000 0.000000 
-0.172908 0.951633 1.071891 -4.647872 0.699128 0.397250 2.704626 0.159621 3.063300 -2.808142 0.213578 8.473323 5.370486 12.506222 6.898765 0.000000 0.000000 0.000000 0.363017 2.520348 -24.379407 4.142140 -0.452535 28.522908 -6.983632 -17.690814 8.339317 0.000000 0.000000 0.000000 5.381195 -1.084754 11.348093 -3.076100 1.363691 -22.946332 -2.990960 11.312811 26.601670 12.314637 -1.799014 -36.813718 0.000000 0.000000 0.000000 -9.472398 -18.962517 6.032496 -61.579074 -29.254866 5.090445 9.879633 -17.148280 -0.889858 0.000000 0.000000 0.000000 20.997638 -2.126303 0.771764 77.707136 7.194983 -3.909178 -15.416272 38.207283 -0.818233 0.000000 0.000000 0.000000 
